<svg xmlns="http://www.w3.org/2000/svg" width="338" height="200" viewBox="0 0 338 200" version="1.1"><path d="" stroke="none" fill="#f02c7c" fill-rule="evenodd"/><path d="M 19.727 50 C 18.329 51.100, 16.517 52, 15.701 52 C 14.885 52, 13.938 53.112, 13.597 54.471 C 13.255 55.830, 12.082 57.421, 10.988 58.006 C 9.601 58.749, 9 60.101, 9 62.476 C 9 64.349, 8.519 66.179, 7.932 66.542 C 7.344 66.905, 7.122 67.876, 7.438 68.699 C 7.763 69.545, 6.671 71.890, 4.931 74.087 C 3.236 76.227, 2.001 78.767, 2.187 79.731 C 2.372 80.695, 5.084 83.243, 8.213 85.393 C 13.577 89.080, 13.818 89.421, 12.451 91.374 C 10.388 94.319, 10.656 99.005, 13.033 101.535 C 14.884 103.505, 15.091 105.210, 15.356 120.599 L 15.646 137.500 12.823 140.327 C 11.270 141.882, 10 143.353, 10 143.597 C 10 143.840, 11.131 145.831, 12.513 148.020 C 15.072 152.075, 17 153.162, 17 150.550 C 17 149.489, 18.521 149.019, 22.671 148.800 C 28.952 148.468, 30.864 146.568, 25.993 145.498 C 22.594 144.752, 20.497 141.110, 21.410 137.539 C 21.697 136.418, 24.921 132.459, 28.576 128.742 C 34.951 122.257, 35.192 121.832, 34.550 118.242 C 34.183 116.184, 32.136 110.900, 30.003 106.500 C 26.095 98.439, 25.242 93.700, 24.661 76.821 C 24.535 73.168, 23.873 71.487, 21.641 69.153 C 18.929 66.317, 18.771 63.777, 21.325 64.092 C 23.886 64.408, 25.068 63.879, 28.465 60.896 C 32.765 57.121, 32.910 54.756, 29.077 50.923 C 25.644 47.490, 23.222 47.251, 19.727 50 M 61.643 71.028 C 55.878 72.756, 52 78.563, 52 85.468 C 52 88.726, 51.767 89, 49 89 C 46.333 89, 46 89.333, 46 92 C 46 94.667, 46.333 95, 49 95 L 52 95 52 111.500 L 52 128 56 128 L 60 128 60 111.500 L 60 95 64.500 95 C 68.833 95, 69 94.889, 69 92 C 69 89.111, 68.833 89, 64.500 89 L 60 89 60 85 C 60 79.572, 62.828 76.745, 67.821 77.179 C 71.288 77.482, 71.517 77.321, 71.803 74.386 C 72.075 71.596, 71.775 71.205, 68.928 70.636 C 65.273 69.905, 65.418 69.897, 61.643 71.028 M 165 81.451 L 165 91.902 160.750 89.973 C 155.432 87.559, 152.596 87.546, 147.384 89.913 C 133.496 96.220, 132.601 120.571, 146.002 127.501 C 151.435 130.310, 159.842 129.158, 163.960 125.040 L 166 123 166 125.500 C 166 127.690, 166.433 128, 169.500 128 L 173 128 173 99.500 L 173 71 169 71 L 165 71 165 81.451 M 303.667 71.667 C 303.300 72.033, 303 84.858, 303 100.167 L 303 128 307 128 L 311 128 311 121.191 C 311 116.666, 311.503 113.731, 312.501 112.441 C 313.981 110.527, 314.025 110.529, 315.751 112.600 C 316.713 113.754, 319.635 117.692, 322.245 121.350 C 326.892 127.864, 327.081 128, 331.495 128 C 333.973 128, 336 127.762, 336 127.471 C 336 127.180, 332.408 122.172, 328.019 116.341 L 320.038 105.740 322.934 102.120 C 324.527 100.129, 327.668 96.721, 329.915 94.547 C 332.162 92.373, 334 90.235, 334 89.797 C 334 89.359, 332.045 89, 329.656 89 C 325.447 89, 325.098 89.254, 318.406 97.186 L 311.500 105.372 311.226 88.186 L 310.953 71 307.643 71 C 305.823 71, 304.033 71.300, 303.667 71.667 M 250.200 75.200 C 248.208 77.192, 248.750 81.796, 251.126 83.068 C 254.387 84.812, 258 82.791, 258 79.221 C 258 75.870, 256.388 74, 253.500 74 C 252.345 74, 250.860 74.540, 250.200 75.200 M 89 88.685 C 88.175 88.996, 86.263 90.403, 84.750 91.812 L 82 94.374 82 91.687 C 82 89.283, 81.632 89, 78.500 89 L 75 89 75 108.500 L 75 128 78.923 128 L 82.845 128 83.173 114.411 C 83.497 100.935, 83.523 100.802, 86.306 98.411 C 87.924 97.021, 90.383 96, 92.116 96 C 94.977 96, 95.106 95.820, 94.810 92.250 C 94.493 88.412, 92.680 87.301, 89 88.685 M 109.604 88.987 C 105.653 90.239, 101.125 94.685, 98.896 99.500 C 96.819 103.986, 96.394 113.267, 98.064 117.685 C 99.511 121.516, 103.826 125.958, 107.718 127.623 C 114.140 130.371, 129.016 128.678, 128.985 125.203 C 128.951 121.484, 127.612 120.817, 122.674 122.060 C 113.845 124.284, 106.658 120.895, 105.053 113.750 L 104.211 110 117.498 110 C 127.626 110, 130.907 109.684, 131.296 108.671 C 132.135 106.485, 130.120 97.679, 128.182 95.062 C 123.992 89.404, 116.263 86.877, 109.604 88.987 M 193.604 88.987 C 183.471 92.199, 177.871 107.625, 182.890 118.500 C 186.385 126.072, 191.411 129, 200.916 129 C 208.881 129, 213 127.453, 213 124.461 C 213 121.274, 212.201 120.986, 206.641 122.172 C 197.383 124.147, 190.454 120.774, 189.335 113.750 L 188.738 110 201.810 110 C 209 110, 215.131 109.597, 215.436 109.103 C 215.741 108.610, 215.702 106.105, 215.350 103.536 C 214.652 98.447, 211.917 93.724, 208 90.848 C 205.021 88.659, 197.645 87.706, 193.604 88.987 M 237 88.704 C 236.175 89.004, 234.262 90.403, 232.750 91.812 L 230 94.374 230 91.687 C 230 89.283, 229.632 89, 226.500 89 L 223 89 223 108.500 L 223 128 227 128 L 231 128 231 115.950 C 231 100.341, 233.053 96, 240.434 96 C 242.761 96, 243 95.627, 243 92 C 243 88.495, 242.721 88.010, 240.750 88.079 C 239.512 88.122, 237.825 88.404, 237 88.704 M 279.115 89.501 C 262.745 94.606, 260.374 119.678, 275.567 127.033 C 279.410 128.893, 281.308 129.175, 287.153 128.757 C 295.036 128.193, 296.536 127.271, 295.604 123.560 C 295.041 121.315, 294.594 121.067, 292.228 121.686 C 281.652 124.451, 273.597 119.012, 273.632 109.132 C 273.670 98.375, 282.451 92.180, 292.335 95.937 C 294.431 96.734, 294.887 96.548, 295.386 94.687 C 296.433 90.784, 296.057 90.110, 292.250 89.053 C 287.428 87.714, 284.530 87.813, 279.115 89.501 M 250 108.500 L 250 128 254 128 L 258 128 258 108.500 L 258 89 254 89 L 250 89 250 108.500 M 111.388 94.980 C 108.652 96.086, 105 100.747, 105 103.135 C 105 104.824, 105.896 105, 114.500 105 C 119.725 105, 124 104.617, 124 104.149 C 124 101.231, 121.375 96.728, 118.941 95.470 C 115.762 93.826, 114.455 93.741, 111.388 94.980 M 195.388 94.980 C 192.652 96.086, 189 100.747, 189 103.135 C 189 104.824, 189.896 105, 198.500 105 C 203.725 105, 208 104.617, 208 104.149 C 208 101.231, 205.375 96.728, 202.941 95.470 C 199.762 93.826, 198.455 93.741, 195.388 94.980 M 150.420 96.145 C 147.079 97.766, 144.725 102.774, 144.663 108.392 C 144.590 115.039, 146.625 119.072, 151.173 121.296 C 154.476 122.910, 155.194 122.946, 158.292 121.651 C 163.625 119.423, 165 116.666, 165 108.201 C 165 101.405, 164.778 100.624, 162.077 97.923 C 158.979 94.825, 154.536 94.147, 150.420 96.145" stroke="none" fill="#ec2c7c" fill-rule="evenodd"/></svg>